<mxfile host="app.diagrams.net" modified="2024-07-09T22:34:42.927Z" agent="Mozilla/5.0 (X11; Linux x86_64) AppleWebKit/537.36 (KHTML, like Gecko) Chrome/126.0.0.0 Safari/537.36" etag="_sLXbrwqYKirg0BhLBZF" version="24.6.4" type="device">
  <diagram name="Page-1" id="Z8rx5sBpDalyY-dVm03O">
    <mxGraphModel dx="4184" dy="2948" grid="1" gridSize="10" guides="1" tooltips="1" connect="1" arrows="1" fold="1" page="1" pageScale="1" pageWidth="850" pageHeight="1100" math="0" shadow="0">
      <root>
        <mxCell id="0" />
        <mxCell id="1" parent="0" />
        <mxCell id="HGyJM2t3qWmwH9yt4fWw-1" value="SPI&lt;div&gt;(1)&lt;/div&gt;" style="ellipse;whiteSpace=wrap;html=1;aspect=fixed;fontSize=18;" vertex="1" parent="1">
          <mxGeometry x="380" y="520" width="80" height="80" as="geometry" />
        </mxCell>
        <mxCell id="HGyJM2t3qWmwH9yt4fWw-2" value="" style="endArrow=classic;html=1;rounded=0;entryX=0.5;entryY=0;entryDx=0;entryDy=0;exitX=0.5;exitY=1;exitDx=0;exitDy=0;fontSize=18;" edge="1" parent="1" source="HGyJM2t3qWmwH9yt4fWw-1" target="HGyJM2t3qWmwH9yt4fWw-7">
          <mxGeometry width="50" height="50" relative="1" as="geometry">
            <mxPoint x="420" y="600" as="sourcePoint" />
            <mxPoint x="515" y="680" as="targetPoint" />
          </mxGeometry>
        </mxCell>
        <mxCell id="HGyJM2t3qWmwH9yt4fWw-86" value="&amp;gt;=1" style="edgeLabel;html=1;align=center;verticalAlign=middle;resizable=0;points=[];fontSize=15;" vertex="1" connectable="0" parent="HGyJM2t3qWmwH9yt4fWw-2">
          <mxGeometry x="-0.169" y="2" relative="1" as="geometry">
            <mxPoint y="-1" as="offset" />
          </mxGeometry>
        </mxCell>
        <mxCell id="HGyJM2t3qWmwH9yt4fWw-3" value="" style="endArrow=classic;html=1;rounded=0;exitX=0.5;exitY=1;exitDx=0;exitDy=0;fontSize=18;" edge="1" parent="1" source="HGyJM2t3qWmwH9yt4fWw-1">
          <mxGeometry width="50" height="50" relative="1" as="geometry">
            <mxPoint x="250" y="680" as="sourcePoint" />
            <mxPoint x="220" y="680" as="targetPoint" />
          </mxGeometry>
        </mxCell>
        <mxCell id="HGyJM2t3qWmwH9yt4fWw-85" value="&amp;lt;=1" style="edgeLabel;html=1;align=center;verticalAlign=middle;resizable=0;points=[];fontSize=15;" vertex="1" connectable="0" parent="HGyJM2t3qWmwH9yt4fWw-3">
          <mxGeometry x="-0.0052" y="1" relative="1" as="geometry">
            <mxPoint as="offset" />
          </mxGeometry>
        </mxCell>
        <mxCell id="HGyJM2t3qWmwH9yt4fWw-4" value="SPI&lt;div&gt;(2)&lt;/div&gt;" style="ellipse;whiteSpace=wrap;html=1;aspect=fixed;fontSize=18;" vertex="1" parent="1">
          <mxGeometry x="180" y="680" width="80" height="80" as="geometry" />
        </mxCell>
        <mxCell id="HGyJM2t3qWmwH9yt4fWw-5" value="" style="endArrow=classic;html=1;rounded=0;entryX=0.5;entryY=0;entryDx=0;entryDy=0;fontSize=18;" edge="1" parent="1" target="HGyJM2t3qWmwH9yt4fWw-144">
          <mxGeometry width="50" height="50" relative="1" as="geometry">
            <mxPoint x="220" y="760" as="sourcePoint" />
            <mxPoint x="300" y="840" as="targetPoint" />
          </mxGeometry>
        </mxCell>
        <mxCell id="HGyJM2t3qWmwH9yt4fWw-146" value="&amp;gt;= -1" style="edgeLabel;html=1;align=center;verticalAlign=middle;resizable=0;points=[];fontSize=15;" vertex="1" connectable="0" parent="HGyJM2t3qWmwH9yt4fWw-5">
          <mxGeometry x="-0.0374" relative="1" as="geometry">
            <mxPoint as="offset" />
          </mxGeometry>
        </mxCell>
        <mxCell id="HGyJM2t3qWmwH9yt4fWw-6" value="" style="endArrow=classic;html=1;rounded=0;exitX=0.5;exitY=1;exitDx=0;exitDy=0;entryX=0.5;entryY=0;entryDx=0;entryDy=0;fontSize=18;" edge="1" parent="1" source="HGyJM2t3qWmwH9yt4fWw-4" target="HGyJM2t3qWmwH9yt4fWw-143">
          <mxGeometry width="50" height="50" relative="1" as="geometry">
            <mxPoint x="140" y="840" as="sourcePoint" />
            <mxPoint x="140" y="840" as="targetPoint" />
          </mxGeometry>
        </mxCell>
        <mxCell id="HGyJM2t3qWmwH9yt4fWw-145" value="&lt;font style=&quot;font-size: 15px;&quot;&gt;&amp;lt;= -1&lt;/font&gt;" style="edgeLabel;html=1;align=center;verticalAlign=middle;resizable=0;points=[];fontSize=15;" vertex="1" connectable="0" parent="HGyJM2t3qWmwH9yt4fWw-6">
          <mxGeometry x="0.0296" relative="1" as="geometry">
            <mxPoint as="offset" />
          </mxGeometry>
        </mxCell>
        <mxCell id="HGyJM2t3qWmwH9yt4fWw-7" value="SPI&lt;div&gt;(3)&lt;/div&gt;" style="ellipse;whiteSpace=wrap;html=1;aspect=fixed;fontSize=18;" vertex="1" parent="1">
          <mxGeometry x="580" y="680" width="80" height="80" as="geometry" />
        </mxCell>
        <mxCell id="HGyJM2t3qWmwH9yt4fWw-8" value="" style="endArrow=classic;html=1;rounded=0;exitX=0.5;exitY=1;exitDx=0;exitDy=0;fontSize=18;" edge="1" parent="1" source="HGyJM2t3qWmwH9yt4fWw-7">
          <mxGeometry width="50" height="50" relative="1" as="geometry">
            <mxPoint x="605" y="760" as="sourcePoint" />
            <mxPoint x="740" y="840" as="targetPoint" />
          </mxGeometry>
        </mxCell>
        <mxCell id="HGyJM2t3qWmwH9yt4fWw-138" value="&lt;font style=&quot;font-size: 15px;&quot;&gt;&amp;gt;=1.2&lt;/font&gt;" style="edgeLabel;html=1;align=center;verticalAlign=middle;resizable=0;points=[];fontSize=15;" vertex="1" connectable="0" parent="HGyJM2t3qWmwH9yt4fWw-8">
          <mxGeometry x="-0.1462" y="-2" relative="1" as="geometry">
            <mxPoint as="offset" />
          </mxGeometry>
        </mxCell>
        <mxCell id="HGyJM2t3qWmwH9yt4fWw-9" value="" style="endArrow=classic;html=1;rounded=0;exitX=0.5;exitY=1;exitDx=0;exitDy=0;fontSize=18;" edge="1" parent="1" source="HGyJM2t3qWmwH9yt4fWw-7">
          <mxGeometry width="50" height="50" relative="1" as="geometry">
            <mxPoint x="450" y="840" as="sourcePoint" />
            <mxPoint x="500" y="840" as="targetPoint" />
          </mxGeometry>
        </mxCell>
        <mxCell id="HGyJM2t3qWmwH9yt4fWw-137" value="&lt;font style=&quot;font-size: 15px;&quot;&gt;&amp;lt;=1.2&lt;/font&gt;" style="edgeLabel;html=1;align=center;verticalAlign=middle;resizable=0;points=[];fontSize=15;" vertex="1" connectable="0" parent="HGyJM2t3qWmwH9yt4fWw-9">
          <mxGeometry x="-0.0192" y="3" relative="1" as="geometry">
            <mxPoint as="offset" />
          </mxGeometry>
        </mxCell>
        <mxCell id="HGyJM2t3qWmwH9yt4fWw-73" style="edgeStyle=orthogonalEdgeStyle;rounded=0;orthogonalLoop=1;jettySize=auto;html=1;exitX=-0.008;exitY=0.125;exitDx=0;exitDy=0;exitPerimeter=0;entryX=0;entryY=0.5;entryDx=0;entryDy=0;fontSize=18;" edge="1" parent="1" source="HGyJM2t3qWmwH9yt4fWw-28" target="HGyJM2t3qWmwH9yt4fWw-70">
          <mxGeometry relative="1" as="geometry">
            <mxPoint x="310" y="440" as="targetPoint" />
            <Array as="points">
              <mxPoint x="310" y="105" />
              <mxPoint x="310" y="405" />
            </Array>
          </mxGeometry>
        </mxCell>
        <mxCell id="HGyJM2t3qWmwH9yt4fWw-74" value="Sorting" style="edgeLabel;html=1;align=center;verticalAlign=middle;resizable=0;points=[];fontSize=15;" vertex="1" connectable="0" parent="HGyJM2t3qWmwH9yt4fWw-73">
          <mxGeometry x="0.2438" y="-5" relative="1" as="geometry">
            <mxPoint x="5" y="-54" as="offset" />
          </mxGeometry>
        </mxCell>
        <mxCell id="HGyJM2t3qWmwH9yt4fWw-10" value="" style="shape=table;startSize=0;container=1;collapsible=0;childLayout=tableLayout;fontSize=18;right=1;" vertex="1" parent="1">
          <mxGeometry x="360" y="-20" width="120" height="240" as="geometry" />
        </mxCell>
        <mxCell id="HGyJM2t3qWmwH9yt4fWw-11" value="" style="shape=tableRow;horizontal=0;startSize=0;swimlaneHead=0;swimlaneBody=0;strokeColor=inherit;top=0;left=0;bottom=0;right=1;collapsible=0;dropTarget=0;fillColor=none;points=[[0,0.5],[1,0.5]];portConstraint=eastwest;fontSize=18;" vertex="1" parent="HGyJM2t3qWmwH9yt4fWw-10">
          <mxGeometry width="120" height="40" as="geometry" />
        </mxCell>
        <mxCell id="HGyJM2t3qWmwH9yt4fWw-12" value="spi" style="shape=partialRectangle;html=1;whiteSpace=wrap;connectable=0;strokeColor=inherit;overflow=hidden;fillColor=none;top=0;left=0;bottom=0;right=1;pointerEvents=1;fontSize=18;" vertex="1" parent="HGyJM2t3qWmwH9yt4fWw-11">
          <mxGeometry width="60" height="40" as="geometry">
            <mxRectangle width="60" height="40" as="alternateBounds" />
          </mxGeometry>
        </mxCell>
        <mxCell id="HGyJM2t3qWmwH9yt4fWw-13" value="yield" style="shape=partialRectangle;html=1;whiteSpace=wrap;connectable=0;strokeColor=inherit;overflow=hidden;fillColor=none;top=0;left=0;bottom=0;right=1;pointerEvents=1;fontSize=18;" vertex="1" parent="HGyJM2t3qWmwH9yt4fWw-11">
          <mxGeometry x="60" width="60" height="40" as="geometry">
            <mxRectangle width="60" height="40" as="alternateBounds" />
          </mxGeometry>
        </mxCell>
        <mxCell id="HGyJM2t3qWmwH9yt4fWw-15" value="" style="shape=tableRow;horizontal=0;startSize=0;swimlaneHead=0;swimlaneBody=0;strokeColor=inherit;top=0;left=0;bottom=0;right=1;collapsible=0;dropTarget=0;fillColor=none;points=[[0,0.5],[1,0.5]];portConstraint=eastwest;fontSize=18;" vertex="1" parent="HGyJM2t3qWmwH9yt4fWw-10">
          <mxGeometry y="40" width="120" height="40" as="geometry" />
        </mxCell>
        <mxCell id="HGyJM2t3qWmwH9yt4fWw-16" value="1.2" style="shape=partialRectangle;html=1;whiteSpace=wrap;connectable=0;strokeColor=inherit;overflow=hidden;fillColor=none;top=0;left=0;bottom=0;right=1;pointerEvents=1;fontSize=18;" vertex="1" parent="HGyJM2t3qWmwH9yt4fWw-15">
          <mxGeometry width="60" height="40" as="geometry">
            <mxRectangle width="60" height="40" as="alternateBounds" />
          </mxGeometry>
        </mxCell>
        <mxCell id="HGyJM2t3qWmwH9yt4fWw-17" value="10" style="shape=partialRectangle;html=1;whiteSpace=wrap;connectable=0;strokeColor=inherit;overflow=hidden;fillColor=none;top=0;left=0;bottom=0;right=1;pointerEvents=1;fontSize=18;" vertex="1" parent="HGyJM2t3qWmwH9yt4fWw-15">
          <mxGeometry x="60" width="60" height="40" as="geometry">
            <mxRectangle width="60" height="40" as="alternateBounds" />
          </mxGeometry>
        </mxCell>
        <mxCell id="HGyJM2t3qWmwH9yt4fWw-19" value="" style="shape=tableRow;horizontal=0;startSize=0;swimlaneHead=0;swimlaneBody=0;strokeColor=inherit;top=0;left=0;bottom=0;right=1;collapsible=0;dropTarget=0;fillColor=none;points=[[0,0.5],[1,0.5]];portConstraint=eastwest;fontSize=18;" vertex="1" parent="HGyJM2t3qWmwH9yt4fWw-10">
          <mxGeometry y="80" width="120" height="40" as="geometry" />
        </mxCell>
        <mxCell id="HGyJM2t3qWmwH9yt4fWw-20" value="-2" style="shape=partialRectangle;html=1;whiteSpace=wrap;connectable=0;strokeColor=inherit;overflow=hidden;fillColor=none;top=0;left=0;bottom=0;right=1;pointerEvents=1;fontSize=18;" vertex="1" parent="HGyJM2t3qWmwH9yt4fWw-19">
          <mxGeometry width="60" height="40" as="geometry">
            <mxRectangle width="60" height="40" as="alternateBounds" />
          </mxGeometry>
        </mxCell>
        <mxCell id="HGyJM2t3qWmwH9yt4fWw-21" value="-5" style="shape=partialRectangle;html=1;whiteSpace=wrap;connectable=0;strokeColor=inherit;overflow=hidden;fillColor=none;top=0;left=0;bottom=0;right=1;pointerEvents=1;fontSize=18;" vertex="1" parent="HGyJM2t3qWmwH9yt4fWw-19">
          <mxGeometry x="60" width="60" height="40" as="geometry">
            <mxRectangle width="60" height="40" as="alternateBounds" />
          </mxGeometry>
        </mxCell>
        <mxCell id="HGyJM2t3qWmwH9yt4fWw-28" value="" style="shape=tableRow;horizontal=0;startSize=0;swimlaneHead=0;swimlaneBody=0;strokeColor=inherit;top=0;left=0;bottom=0;right=1;collapsible=0;dropTarget=0;fillColor=none;points=[[0,0.5],[1,0.5]];portConstraint=eastwest;fontSize=18;" vertex="1" parent="HGyJM2t3qWmwH9yt4fWw-10">
          <mxGeometry y="120" width="120" height="40" as="geometry" />
        </mxCell>
        <mxCell id="HGyJM2t3qWmwH9yt4fWw-29" value="1" style="shape=partialRectangle;html=1;whiteSpace=wrap;connectable=0;strokeColor=inherit;overflow=hidden;fillColor=none;top=0;left=0;bottom=0;right=1;pointerEvents=1;fontSize=18;" vertex="1" parent="HGyJM2t3qWmwH9yt4fWw-28">
          <mxGeometry width="60" height="40" as="geometry">
            <mxRectangle width="60" height="40" as="alternateBounds" />
          </mxGeometry>
        </mxCell>
        <mxCell id="HGyJM2t3qWmwH9yt4fWw-30" value="3" style="shape=partialRectangle;html=1;whiteSpace=wrap;connectable=0;strokeColor=inherit;overflow=hidden;fillColor=none;top=0;left=0;bottom=0;right=1;pointerEvents=1;fontSize=18;" vertex="1" parent="HGyJM2t3qWmwH9yt4fWw-28">
          <mxGeometry x="60" width="60" height="40" as="geometry">
            <mxRectangle width="60" height="40" as="alternateBounds" />
          </mxGeometry>
        </mxCell>
        <mxCell id="HGyJM2t3qWmwH9yt4fWw-32" value="" style="shape=tableRow;horizontal=0;startSize=0;swimlaneHead=0;swimlaneBody=0;strokeColor=inherit;top=0;left=0;bottom=0;right=1;collapsible=0;dropTarget=0;fillColor=none;points=[[0,0.5],[1,0.5]];portConstraint=eastwest;fontSize=18;" vertex="1" parent="HGyJM2t3qWmwH9yt4fWw-10">
          <mxGeometry y="160" width="120" height="40" as="geometry" />
        </mxCell>
        <mxCell id="HGyJM2t3qWmwH9yt4fWw-33" value="1.7" style="shape=partialRectangle;html=1;whiteSpace=wrap;connectable=0;strokeColor=inherit;overflow=hidden;fillColor=none;top=0;left=0;bottom=0;right=1;pointerEvents=1;fontSize=18;" vertex="1" parent="HGyJM2t3qWmwH9yt4fWw-32">
          <mxGeometry width="60" height="40" as="geometry">
            <mxRectangle width="60" height="40" as="alternateBounds" />
          </mxGeometry>
        </mxCell>
        <mxCell id="HGyJM2t3qWmwH9yt4fWw-34" value="12" style="shape=partialRectangle;html=1;whiteSpace=wrap;connectable=0;strokeColor=inherit;overflow=hidden;fillColor=none;top=0;left=0;bottom=0;right=1;pointerEvents=1;fontSize=18;" vertex="1" parent="HGyJM2t3qWmwH9yt4fWw-32">
          <mxGeometry x="60" width="60" height="40" as="geometry">
            <mxRectangle width="60" height="40" as="alternateBounds" />
          </mxGeometry>
        </mxCell>
        <mxCell id="HGyJM2t3qWmwH9yt4fWw-36" value="" style="shape=tableRow;horizontal=0;startSize=0;swimlaneHead=0;swimlaneBody=0;strokeColor=inherit;top=0;left=0;bottom=0;right=1;collapsible=0;dropTarget=0;fillColor=none;points=[[0,0.5],[1,0.5]];portConstraint=eastwest;fontSize=18;" vertex="1" parent="HGyJM2t3qWmwH9yt4fWw-10">
          <mxGeometry y="200" width="120" height="40" as="geometry" />
        </mxCell>
        <mxCell id="HGyJM2t3qWmwH9yt4fWw-37" value="-1" style="shape=partialRectangle;html=1;whiteSpace=wrap;connectable=0;strokeColor=inherit;overflow=hidden;fillColor=none;top=0;left=0;bottom=0;right=1;pointerEvents=1;fontSize=18;" vertex="1" parent="HGyJM2t3qWmwH9yt4fWw-36">
          <mxGeometry width="60" height="40" as="geometry">
            <mxRectangle width="60" height="40" as="alternateBounds" />
          </mxGeometry>
        </mxCell>
        <mxCell id="HGyJM2t3qWmwH9yt4fWw-38" value="2" style="shape=partialRectangle;html=1;whiteSpace=wrap;connectable=0;strokeColor=inherit;overflow=hidden;fillColor=none;top=0;left=0;bottom=0;right=1;pointerEvents=1;fontSize=18;" vertex="1" parent="HGyJM2t3qWmwH9yt4fWw-36">
          <mxGeometry x="60" width="60" height="40" as="geometry">
            <mxRectangle width="60" height="40" as="alternateBounds" />
          </mxGeometry>
        </mxCell>
        <mxCell id="HGyJM2t3qWmwH9yt4fWw-51" value="" style="shape=table;startSize=0;container=1;collapsible=0;childLayout=tableLayout;fontSize=18;right=1;" vertex="1" parent="1">
          <mxGeometry x="360" y="265" width="120" height="240" as="geometry" />
        </mxCell>
        <mxCell id="HGyJM2t3qWmwH9yt4fWw-52" value="" style="shape=tableRow;horizontal=0;startSize=0;swimlaneHead=0;swimlaneBody=0;strokeColor=inherit;top=0;left=0;bottom=0;right=1;collapsible=0;dropTarget=0;fillColor=none;points=[[0,0.5],[1,0.5]];portConstraint=eastwest;fontSize=18;" vertex="1" parent="HGyJM2t3qWmwH9yt4fWw-51">
          <mxGeometry width="120" height="40" as="geometry" />
        </mxCell>
        <mxCell id="HGyJM2t3qWmwH9yt4fWw-53" value="spi" style="shape=partialRectangle;html=1;whiteSpace=wrap;connectable=0;strokeColor=inherit;overflow=hidden;fillColor=none;top=0;left=0;bottom=0;right=1;pointerEvents=1;fontSize=18;" vertex="1" parent="HGyJM2t3qWmwH9yt4fWw-52">
          <mxGeometry width="60" height="40" as="geometry">
            <mxRectangle width="60" height="40" as="alternateBounds" />
          </mxGeometry>
        </mxCell>
        <mxCell id="HGyJM2t3qWmwH9yt4fWw-54" value="yield" style="shape=partialRectangle;html=1;whiteSpace=wrap;connectable=0;strokeColor=inherit;overflow=hidden;fillColor=none;top=0;left=0;bottom=0;right=1;pointerEvents=1;fontSize=18;" vertex="1" parent="HGyJM2t3qWmwH9yt4fWw-52">
          <mxGeometry x="60" width="60" height="40" as="geometry">
            <mxRectangle width="60" height="40" as="alternateBounds" />
          </mxGeometry>
        </mxCell>
        <mxCell id="HGyJM2t3qWmwH9yt4fWw-55" value="" style="shape=tableRow;horizontal=0;startSize=0;swimlaneHead=0;swimlaneBody=0;strokeColor=inherit;top=0;left=0;bottom=0;right=1;collapsible=0;dropTarget=0;fillColor=none;points=[[0,0.5],[1,0.5]];portConstraint=eastwest;fontSize=18;" vertex="1" parent="HGyJM2t3qWmwH9yt4fWw-51">
          <mxGeometry y="40" width="120" height="40" as="geometry" />
        </mxCell>
        <mxCell id="HGyJM2t3qWmwH9yt4fWw-56" value="-2" style="shape=partialRectangle;html=1;whiteSpace=wrap;connectable=0;strokeColor=inherit;overflow=hidden;fillColor=none;top=0;left=0;bottom=0;right=1;pointerEvents=1;fontSize=18;" vertex="1" parent="HGyJM2t3qWmwH9yt4fWw-55">
          <mxGeometry width="60" height="40" as="geometry">
            <mxRectangle width="60" height="40" as="alternateBounds" />
          </mxGeometry>
        </mxCell>
        <mxCell id="HGyJM2t3qWmwH9yt4fWw-57" value="-5" style="shape=partialRectangle;html=1;whiteSpace=wrap;connectable=0;strokeColor=inherit;overflow=hidden;fillColor=none;top=0;left=0;bottom=0;right=1;pointerEvents=1;fontSize=18;" vertex="1" parent="HGyJM2t3qWmwH9yt4fWw-55">
          <mxGeometry x="60" width="60" height="40" as="geometry">
            <mxRectangle width="60" height="40" as="alternateBounds" />
          </mxGeometry>
        </mxCell>
        <mxCell id="HGyJM2t3qWmwH9yt4fWw-58" value="" style="shape=tableRow;horizontal=0;startSize=0;swimlaneHead=0;swimlaneBody=0;strokeColor=inherit;top=0;left=0;bottom=0;right=1;collapsible=0;dropTarget=0;fillColor=none;points=[[0,0.5],[1,0.5]];portConstraint=eastwest;fontSize=18;" vertex="1" parent="HGyJM2t3qWmwH9yt4fWw-51">
          <mxGeometry y="80" width="120" height="40" as="geometry" />
        </mxCell>
        <mxCell id="HGyJM2t3qWmwH9yt4fWw-59" value="-1" style="shape=partialRectangle;html=1;whiteSpace=wrap;connectable=0;strokeColor=inherit;overflow=hidden;fillColor=none;top=0;left=0;bottom=0;right=1;pointerEvents=1;fontSize=18;" vertex="1" parent="HGyJM2t3qWmwH9yt4fWw-58">
          <mxGeometry width="60" height="40" as="geometry">
            <mxRectangle width="60" height="40" as="alternateBounds" />
          </mxGeometry>
        </mxCell>
        <mxCell id="HGyJM2t3qWmwH9yt4fWw-60" value="2" style="shape=partialRectangle;html=1;whiteSpace=wrap;connectable=0;strokeColor=inherit;overflow=hidden;fillColor=none;top=0;left=0;bottom=0;right=1;pointerEvents=1;fontSize=18;" vertex="1" parent="HGyJM2t3qWmwH9yt4fWw-58">
          <mxGeometry x="60" width="60" height="40" as="geometry">
            <mxRectangle width="60" height="40" as="alternateBounds" />
          </mxGeometry>
        </mxCell>
        <mxCell id="HGyJM2t3qWmwH9yt4fWw-70" value="" style="shape=tableRow;horizontal=0;startSize=0;swimlaneHead=0;swimlaneBody=0;strokeColor=inherit;top=0;left=0;bottom=0;right=1;collapsible=0;dropTarget=0;fillColor=none;points=[[0,0.5],[1,0.5]];portConstraint=eastwest;fontSize=18;" vertex="1" parent="HGyJM2t3qWmwH9yt4fWw-51">
          <mxGeometry y="120" width="120" height="40" as="geometry" />
        </mxCell>
        <mxCell id="HGyJM2t3qWmwH9yt4fWw-71" value="1" style="shape=partialRectangle;html=1;whiteSpace=wrap;connectable=0;strokeColor=inherit;overflow=hidden;fillColor=none;top=0;left=0;bottom=0;right=1;pointerEvents=1;fontSize=18;" vertex="1" parent="HGyJM2t3qWmwH9yt4fWw-70">
          <mxGeometry width="60" height="40" as="geometry">
            <mxRectangle width="60" height="40" as="alternateBounds" />
          </mxGeometry>
        </mxCell>
        <mxCell id="HGyJM2t3qWmwH9yt4fWw-72" value="3" style="shape=partialRectangle;html=1;whiteSpace=wrap;connectable=0;strokeColor=inherit;overflow=hidden;fillColor=none;top=0;left=0;bottom=0;right=1;pointerEvents=1;fontSize=18;" vertex="1" parent="HGyJM2t3qWmwH9yt4fWw-70">
          <mxGeometry x="60" width="60" height="40" as="geometry">
            <mxRectangle width="60" height="40" as="alternateBounds" />
          </mxGeometry>
        </mxCell>
        <mxCell id="HGyJM2t3qWmwH9yt4fWw-61" value="" style="shape=tableRow;horizontal=0;startSize=0;swimlaneHead=0;swimlaneBody=0;strokeColor=inherit;top=0;left=0;bottom=0;right=1;collapsible=0;dropTarget=0;fillColor=none;points=[[0,0.5],[1,0.5]];portConstraint=eastwest;fontSize=18;" vertex="1" parent="HGyJM2t3qWmwH9yt4fWw-51">
          <mxGeometry y="160" width="120" height="40" as="geometry" />
        </mxCell>
        <mxCell id="HGyJM2t3qWmwH9yt4fWw-62" value="1.2" style="shape=partialRectangle;html=1;whiteSpace=wrap;connectable=0;strokeColor=inherit;overflow=hidden;fillColor=none;top=0;left=0;bottom=0;right=1;pointerEvents=1;fontSize=18;" vertex="1" parent="HGyJM2t3qWmwH9yt4fWw-61">
          <mxGeometry width="60" height="40" as="geometry">
            <mxRectangle width="60" height="40" as="alternateBounds" />
          </mxGeometry>
        </mxCell>
        <mxCell id="HGyJM2t3qWmwH9yt4fWw-63" value="10" style="shape=partialRectangle;html=1;whiteSpace=wrap;connectable=0;strokeColor=inherit;overflow=hidden;fillColor=none;top=0;left=0;bottom=0;right=1;pointerEvents=1;fontSize=18;" vertex="1" parent="HGyJM2t3qWmwH9yt4fWw-61">
          <mxGeometry x="60" width="60" height="40" as="geometry">
            <mxRectangle width="60" height="40" as="alternateBounds" />
          </mxGeometry>
        </mxCell>
        <mxCell id="HGyJM2t3qWmwH9yt4fWw-64" value="" style="shape=tableRow;horizontal=0;startSize=0;swimlaneHead=0;swimlaneBody=0;strokeColor=inherit;top=0;left=0;bottom=0;right=1;collapsible=0;dropTarget=0;fillColor=none;points=[[0,0.5],[1,0.5]];portConstraint=eastwest;fontSize=18;" vertex="1" parent="HGyJM2t3qWmwH9yt4fWw-51">
          <mxGeometry y="200" width="120" height="40" as="geometry" />
        </mxCell>
        <mxCell id="HGyJM2t3qWmwH9yt4fWw-65" value="1.7" style="shape=partialRectangle;html=1;whiteSpace=wrap;connectable=0;strokeColor=inherit;overflow=hidden;fillColor=none;top=0;left=0;bottom=0;right=1;pointerEvents=1;fontSize=18;" vertex="1" parent="HGyJM2t3qWmwH9yt4fWw-64">
          <mxGeometry width="60" height="40" as="geometry">
            <mxRectangle width="60" height="40" as="alternateBounds" />
          </mxGeometry>
        </mxCell>
        <mxCell id="HGyJM2t3qWmwH9yt4fWw-66" value="12" style="shape=partialRectangle;html=1;whiteSpace=wrap;connectable=0;strokeColor=inherit;overflow=hidden;fillColor=none;top=0;left=0;bottom=0;right=1;pointerEvents=1;fontSize=18;" vertex="1" parent="HGyJM2t3qWmwH9yt4fWw-64">
          <mxGeometry x="60" width="60" height="40" as="geometry">
            <mxRectangle width="60" height="40" as="alternateBounds" />
          </mxGeometry>
        </mxCell>
        <mxCell id="HGyJM2t3qWmwH9yt4fWw-99" value="" style="shape=table;startSize=0;container=1;collapsible=0;childLayout=tableLayout;fontSize=18;right=1;" vertex="1" parent="1">
          <mxGeometry x="680" y="660" width="130" height="120" as="geometry" />
        </mxCell>
        <mxCell id="HGyJM2t3qWmwH9yt4fWw-100" value="" style="shape=tableRow;horizontal=0;startSize=0;swimlaneHead=0;swimlaneBody=0;strokeColor=inherit;top=0;left=0;bottom=0;right=1;collapsible=0;dropTarget=0;fillColor=none;points=[[0,0.5],[1,0.5]];portConstraint=eastwest;fontSize=18;" vertex="1" parent="HGyJM2t3qWmwH9yt4fWw-99">
          <mxGeometry width="130" height="40" as="geometry" />
        </mxCell>
        <mxCell id="HGyJM2t3qWmwH9yt4fWw-101" value="spi" style="shape=partialRectangle;html=1;whiteSpace=wrap;connectable=0;strokeColor=inherit;overflow=hidden;fillColor=none;top=0;left=0;bottom=0;right=1;pointerEvents=1;fontSize=18;" vertex="1" parent="HGyJM2t3qWmwH9yt4fWw-100">
          <mxGeometry width="65" height="40" as="geometry">
            <mxRectangle width="65" height="40" as="alternateBounds" />
          </mxGeometry>
        </mxCell>
        <mxCell id="HGyJM2t3qWmwH9yt4fWw-102" value="yield" style="shape=partialRectangle;html=1;whiteSpace=wrap;connectable=0;strokeColor=inherit;overflow=hidden;fillColor=none;top=0;left=0;bottom=0;right=1;pointerEvents=1;fontSize=18;" vertex="1" parent="HGyJM2t3qWmwH9yt4fWw-100">
          <mxGeometry x="65" width="65" height="40" as="geometry">
            <mxRectangle width="65" height="40" as="alternateBounds" />
          </mxGeometry>
        </mxCell>
        <mxCell id="HGyJM2t3qWmwH9yt4fWw-112" value="" style="shape=tableRow;horizontal=0;startSize=0;swimlaneHead=0;swimlaneBody=0;strokeColor=inherit;top=0;left=0;bottom=0;right=1;collapsible=0;dropTarget=0;fillColor=none;points=[[0,0.5],[1,0.5]];portConstraint=eastwest;fontSize=18;" vertex="1" parent="HGyJM2t3qWmwH9yt4fWw-99">
          <mxGeometry y="40" width="130" height="40" as="geometry" />
        </mxCell>
        <mxCell id="HGyJM2t3qWmwH9yt4fWw-113" value="1.2" style="shape=partialRectangle;html=1;whiteSpace=wrap;connectable=0;strokeColor=inherit;overflow=hidden;fillColor=none;top=0;left=0;bottom=0;right=1;pointerEvents=1;fontSize=18;" vertex="1" parent="HGyJM2t3qWmwH9yt4fWw-112">
          <mxGeometry width="65" height="40" as="geometry">
            <mxRectangle width="65" height="40" as="alternateBounds" />
          </mxGeometry>
        </mxCell>
        <mxCell id="HGyJM2t3qWmwH9yt4fWw-114" value="10" style="shape=partialRectangle;html=1;whiteSpace=wrap;connectable=0;strokeColor=inherit;overflow=hidden;fillColor=none;top=0;left=0;bottom=0;right=1;pointerEvents=1;fontSize=18;" vertex="1" parent="HGyJM2t3qWmwH9yt4fWw-112">
          <mxGeometry x="65" width="65" height="40" as="geometry">
            <mxRectangle width="65" height="40" as="alternateBounds" />
          </mxGeometry>
        </mxCell>
        <mxCell id="HGyJM2t3qWmwH9yt4fWw-115" value="" style="shape=tableRow;horizontal=0;startSize=0;swimlaneHead=0;swimlaneBody=0;strokeColor=inherit;top=0;left=0;bottom=0;right=1;collapsible=0;dropTarget=0;fillColor=none;points=[[0,0.5],[1,0.5]];portConstraint=eastwest;fontSize=18;" vertex="1" parent="HGyJM2t3qWmwH9yt4fWw-99">
          <mxGeometry y="80" width="130" height="40" as="geometry" />
        </mxCell>
        <mxCell id="HGyJM2t3qWmwH9yt4fWw-116" value="1.7" style="shape=partialRectangle;html=1;whiteSpace=wrap;connectable=0;strokeColor=inherit;overflow=hidden;fillColor=none;top=0;left=0;bottom=0;right=1;pointerEvents=1;fontSize=18;" vertex="1" parent="HGyJM2t3qWmwH9yt4fWw-115">
          <mxGeometry width="65" height="40" as="geometry">
            <mxRectangle width="65" height="40" as="alternateBounds" />
          </mxGeometry>
        </mxCell>
        <mxCell id="HGyJM2t3qWmwH9yt4fWw-117" value="12" style="shape=partialRectangle;html=1;whiteSpace=wrap;connectable=0;strokeColor=inherit;overflow=hidden;fillColor=none;top=0;left=0;bottom=0;right=1;pointerEvents=1;fontSize=18;" vertex="1" parent="HGyJM2t3qWmwH9yt4fWw-115">
          <mxGeometry x="65" width="65" height="40" as="geometry">
            <mxRectangle width="65" height="40" as="alternateBounds" />
          </mxGeometry>
        </mxCell>
        <mxCell id="HGyJM2t3qWmwH9yt4fWw-118" value="" style="shape=table;startSize=0;container=1;collapsible=0;childLayout=tableLayout;fontSize=18;right=1;" vertex="1" parent="1">
          <mxGeometry x="30" y="620" width="130" height="160" as="geometry" />
        </mxCell>
        <mxCell id="HGyJM2t3qWmwH9yt4fWw-119" value="" style="shape=tableRow;horizontal=0;startSize=0;swimlaneHead=0;swimlaneBody=0;strokeColor=inherit;top=0;left=0;bottom=0;right=1;collapsible=0;dropTarget=0;fillColor=none;points=[[0,0.5],[1,0.5]];portConstraint=eastwest;fontSize=18;" vertex="1" parent="HGyJM2t3qWmwH9yt4fWw-118">
          <mxGeometry width="130" height="40" as="geometry" />
        </mxCell>
        <mxCell id="HGyJM2t3qWmwH9yt4fWw-120" value="spi" style="shape=partialRectangle;html=1;whiteSpace=wrap;connectable=0;strokeColor=inherit;overflow=hidden;fillColor=none;top=0;left=0;bottom=0;right=1;pointerEvents=1;fontSize=18;" vertex="1" parent="HGyJM2t3qWmwH9yt4fWw-119">
          <mxGeometry width="65" height="40" as="geometry">
            <mxRectangle width="65" height="40" as="alternateBounds" />
          </mxGeometry>
        </mxCell>
        <mxCell id="HGyJM2t3qWmwH9yt4fWw-121" value="yield" style="shape=partialRectangle;html=1;whiteSpace=wrap;connectable=0;strokeColor=inherit;overflow=hidden;fillColor=none;top=0;left=0;bottom=0;right=1;pointerEvents=1;fontSize=18;" vertex="1" parent="HGyJM2t3qWmwH9yt4fWw-119">
          <mxGeometry x="65" width="65" height="40" as="geometry">
            <mxRectangle width="65" height="40" as="alternateBounds" />
          </mxGeometry>
        </mxCell>
        <mxCell id="HGyJM2t3qWmwH9yt4fWw-122" value="" style="shape=tableRow;horizontal=0;startSize=0;swimlaneHead=0;swimlaneBody=0;strokeColor=inherit;top=0;left=0;bottom=0;right=1;collapsible=0;dropTarget=0;fillColor=none;points=[[0,0.5],[1,0.5]];portConstraint=eastwest;fontSize=18;" vertex="1" parent="HGyJM2t3qWmwH9yt4fWw-118">
          <mxGeometry y="40" width="130" height="40" as="geometry" />
        </mxCell>
        <mxCell id="HGyJM2t3qWmwH9yt4fWw-123" value="-2" style="shape=partialRectangle;html=1;whiteSpace=wrap;connectable=0;strokeColor=inherit;overflow=hidden;fillColor=none;top=0;left=0;bottom=0;right=1;pointerEvents=1;fontSize=18;" vertex="1" parent="HGyJM2t3qWmwH9yt4fWw-122">
          <mxGeometry width="65" height="40" as="geometry">
            <mxRectangle width="65" height="40" as="alternateBounds" />
          </mxGeometry>
        </mxCell>
        <mxCell id="HGyJM2t3qWmwH9yt4fWw-124" value="-5" style="shape=partialRectangle;html=1;whiteSpace=wrap;connectable=0;strokeColor=inherit;overflow=hidden;fillColor=none;top=0;left=0;bottom=0;right=1;pointerEvents=1;fontSize=18;" vertex="1" parent="HGyJM2t3qWmwH9yt4fWw-122">
          <mxGeometry x="65" width="65" height="40" as="geometry">
            <mxRectangle width="65" height="40" as="alternateBounds" />
          </mxGeometry>
        </mxCell>
        <mxCell id="HGyJM2t3qWmwH9yt4fWw-125" value="" style="shape=tableRow;horizontal=0;startSize=0;swimlaneHead=0;swimlaneBody=0;strokeColor=inherit;top=0;left=0;bottom=0;right=1;collapsible=0;dropTarget=0;fillColor=none;points=[[0,0.5],[1,0.5]];portConstraint=eastwest;fontSize=18;" vertex="1" parent="HGyJM2t3qWmwH9yt4fWw-118">
          <mxGeometry y="80" width="130" height="40" as="geometry" />
        </mxCell>
        <mxCell id="HGyJM2t3qWmwH9yt4fWw-126" value="-1" style="shape=partialRectangle;html=1;whiteSpace=wrap;connectable=0;strokeColor=inherit;overflow=hidden;fillColor=none;top=0;left=0;bottom=0;right=1;pointerEvents=1;fontSize=18;" vertex="1" parent="HGyJM2t3qWmwH9yt4fWw-125">
          <mxGeometry width="65" height="40" as="geometry">
            <mxRectangle width="65" height="40" as="alternateBounds" />
          </mxGeometry>
        </mxCell>
        <mxCell id="HGyJM2t3qWmwH9yt4fWw-127" value="2" style="shape=partialRectangle;html=1;whiteSpace=wrap;connectable=0;strokeColor=inherit;overflow=hidden;fillColor=none;top=0;left=0;bottom=0;right=1;pointerEvents=1;fontSize=18;" vertex="1" parent="HGyJM2t3qWmwH9yt4fWw-125">
          <mxGeometry x="65" width="65" height="40" as="geometry">
            <mxRectangle width="65" height="40" as="alternateBounds" />
          </mxGeometry>
        </mxCell>
        <mxCell id="HGyJM2t3qWmwH9yt4fWw-128" value="" style="shape=tableRow;horizontal=0;startSize=0;swimlaneHead=0;swimlaneBody=0;strokeColor=inherit;top=0;left=0;bottom=0;right=1;collapsible=0;dropTarget=0;fillColor=none;points=[[0,0.5],[1,0.5]];portConstraint=eastwest;fontSize=18;" vertex="1" parent="HGyJM2t3qWmwH9yt4fWw-118">
          <mxGeometry y="120" width="130" height="40" as="geometry" />
        </mxCell>
        <mxCell id="HGyJM2t3qWmwH9yt4fWw-129" value="1" style="shape=partialRectangle;html=1;whiteSpace=wrap;connectable=0;strokeColor=inherit;overflow=hidden;fillColor=none;top=0;left=0;bottom=0;right=1;pointerEvents=1;fontSize=18;" vertex="1" parent="HGyJM2t3qWmwH9yt4fWw-128">
          <mxGeometry width="65" height="40" as="geometry">
            <mxRectangle width="65" height="40" as="alternateBounds" />
          </mxGeometry>
        </mxCell>
        <mxCell id="HGyJM2t3qWmwH9yt4fWw-130" value="3" style="shape=partialRectangle;html=1;whiteSpace=wrap;connectable=0;strokeColor=inherit;overflow=hidden;fillColor=none;top=0;left=0;bottom=0;right=1;pointerEvents=1;fontSize=18;" vertex="1" parent="HGyJM2t3qWmwH9yt4fWw-128">
          <mxGeometry x="65" width="65" height="40" as="geometry">
            <mxRectangle width="65" height="40" as="alternateBounds" />
          </mxGeometry>
        </mxCell>
        <mxCell id="HGyJM2t3qWmwH9yt4fWw-139" value="10" style="ellipse;whiteSpace=wrap;html=1;aspect=fixed;fontSize=18;" vertex="1" parent="1">
          <mxGeometry x="460" y="840" width="80" height="80" as="geometry" />
        </mxCell>
        <mxCell id="HGyJM2t3qWmwH9yt4fWw-140" value="12" style="ellipse;whiteSpace=wrap;html=1;aspect=fixed;fontSize=18;" vertex="1" parent="1">
          <mxGeometry x="700" y="840" width="80" height="80" as="geometry" />
        </mxCell>
        <mxCell id="HGyJM2t3qWmwH9yt4fWw-143" value="SPI&lt;div&gt;(4)&lt;/div&gt;" style="ellipse;whiteSpace=wrap;html=1;aspect=fixed;fontSize=18;" vertex="1" parent="1">
          <mxGeometry x="55" y="840" width="80" height="80" as="geometry" />
        </mxCell>
        <mxCell id="HGyJM2t3qWmwH9yt4fWw-144" value="3" style="ellipse;whiteSpace=wrap;html=1;aspect=fixed;fontSize=18;" vertex="1" parent="1">
          <mxGeometry x="300" y="840" width="80" height="80" as="geometry" />
        </mxCell>
        <mxCell id="HGyJM2t3qWmwH9yt4fWw-147" value="" style="shape=table;startSize=0;container=1;collapsible=0;childLayout=tableLayout;fontSize=18;right=1;" vertex="1" parent="1">
          <mxGeometry x="-90" y="820" width="130" height="120" as="geometry" />
        </mxCell>
        <mxCell id="HGyJM2t3qWmwH9yt4fWw-148" value="" style="shape=tableRow;horizontal=0;startSize=0;swimlaneHead=0;swimlaneBody=0;strokeColor=inherit;top=0;left=0;bottom=0;right=1;collapsible=0;dropTarget=0;fillColor=none;points=[[0,0.5],[1,0.5]];portConstraint=eastwest;fontSize=18;" vertex="1" parent="HGyJM2t3qWmwH9yt4fWw-147">
          <mxGeometry width="130" height="40" as="geometry" />
        </mxCell>
        <mxCell id="HGyJM2t3qWmwH9yt4fWw-149" value="spi" style="shape=partialRectangle;html=1;whiteSpace=wrap;connectable=0;strokeColor=inherit;overflow=hidden;fillColor=none;top=0;left=0;bottom=0;right=1;pointerEvents=1;fontSize=18;" vertex="1" parent="HGyJM2t3qWmwH9yt4fWw-148">
          <mxGeometry width="65" height="40" as="geometry">
            <mxRectangle width="65" height="40" as="alternateBounds" />
          </mxGeometry>
        </mxCell>
        <mxCell id="HGyJM2t3qWmwH9yt4fWw-150" value="yield" style="shape=partialRectangle;html=1;whiteSpace=wrap;connectable=0;strokeColor=inherit;overflow=hidden;fillColor=none;top=0;left=0;bottom=0;right=1;pointerEvents=1;fontSize=18;" vertex="1" parent="HGyJM2t3qWmwH9yt4fWw-148">
          <mxGeometry x="65" width="65" height="40" as="geometry">
            <mxRectangle width="65" height="40" as="alternateBounds" />
          </mxGeometry>
        </mxCell>
        <mxCell id="HGyJM2t3qWmwH9yt4fWw-151" value="" style="shape=tableRow;horizontal=0;startSize=0;swimlaneHead=0;swimlaneBody=0;strokeColor=inherit;top=0;left=0;bottom=0;right=1;collapsible=0;dropTarget=0;fillColor=none;points=[[0,0.5],[1,0.5]];portConstraint=eastwest;fontSize=18;" vertex="1" parent="HGyJM2t3qWmwH9yt4fWw-147">
          <mxGeometry y="40" width="130" height="40" as="geometry" />
        </mxCell>
        <mxCell id="HGyJM2t3qWmwH9yt4fWw-152" value="-2" style="shape=partialRectangle;html=1;whiteSpace=wrap;connectable=0;strokeColor=inherit;overflow=hidden;fillColor=none;top=0;left=0;bottom=0;right=1;pointerEvents=1;fontSize=18;" vertex="1" parent="HGyJM2t3qWmwH9yt4fWw-151">
          <mxGeometry width="65" height="40" as="geometry">
            <mxRectangle width="65" height="40" as="alternateBounds" />
          </mxGeometry>
        </mxCell>
        <mxCell id="HGyJM2t3qWmwH9yt4fWw-153" value="-5" style="shape=partialRectangle;html=1;whiteSpace=wrap;connectable=0;strokeColor=inherit;overflow=hidden;fillColor=none;top=0;left=0;bottom=0;right=1;pointerEvents=1;fontSize=18;" vertex="1" parent="HGyJM2t3qWmwH9yt4fWw-151">
          <mxGeometry x="65" width="65" height="40" as="geometry">
            <mxRectangle width="65" height="40" as="alternateBounds" />
          </mxGeometry>
        </mxCell>
        <mxCell id="HGyJM2t3qWmwH9yt4fWw-154" value="" style="shape=tableRow;horizontal=0;startSize=0;swimlaneHead=0;swimlaneBody=0;strokeColor=inherit;top=0;left=0;bottom=0;right=1;collapsible=0;dropTarget=0;fillColor=none;points=[[0,0.5],[1,0.5]];portConstraint=eastwest;fontSize=18;" vertex="1" parent="HGyJM2t3qWmwH9yt4fWw-147">
          <mxGeometry y="80" width="130" height="40" as="geometry" />
        </mxCell>
        <mxCell id="HGyJM2t3qWmwH9yt4fWw-155" value="-1" style="shape=partialRectangle;html=1;whiteSpace=wrap;connectable=0;strokeColor=inherit;overflow=hidden;fillColor=none;top=0;left=0;bottom=0;right=1;pointerEvents=1;fontSize=18;" vertex="1" parent="HGyJM2t3qWmwH9yt4fWw-154">
          <mxGeometry width="65" height="40" as="geometry">
            <mxRectangle width="65" height="40" as="alternateBounds" />
          </mxGeometry>
        </mxCell>
        <mxCell id="HGyJM2t3qWmwH9yt4fWw-156" value="2" style="shape=partialRectangle;html=1;whiteSpace=wrap;connectable=0;strokeColor=inherit;overflow=hidden;fillColor=none;top=0;left=0;bottom=0;right=1;pointerEvents=1;fontSize=18;" vertex="1" parent="HGyJM2t3qWmwH9yt4fWw-154">
          <mxGeometry x="65" width="65" height="40" as="geometry">
            <mxRectangle width="65" height="40" as="alternateBounds" />
          </mxGeometry>
        </mxCell>
        <mxCell id="HGyJM2t3qWmwH9yt4fWw-160" value="" style="endArrow=classic;html=1;rounded=0;entryX=0.5;entryY=0;entryDx=0;entryDy=0;fontSize=18;" edge="1" parent="1" target="HGyJM2t3qWmwH9yt4fWw-165">
          <mxGeometry width="50" height="50" relative="1" as="geometry">
            <mxPoint x="95" y="920" as="sourcePoint" />
            <mxPoint x="175" y="1000" as="targetPoint" />
          </mxGeometry>
        </mxCell>
        <mxCell id="HGyJM2t3qWmwH9yt4fWw-161" value="&amp;gt;= -2" style="edgeLabel;html=1;align=center;verticalAlign=middle;resizable=0;points=[];fontSize=15;" vertex="1" connectable="0" parent="HGyJM2t3qWmwH9yt4fWw-160">
          <mxGeometry x="-0.0374" relative="1" as="geometry">
            <mxPoint as="offset" />
          </mxGeometry>
        </mxCell>
        <mxCell id="HGyJM2t3qWmwH9yt4fWw-162" value="" style="endArrow=classic;html=1;rounded=0;exitX=0.5;exitY=1;exitDx=0;exitDy=0;entryX=0.5;entryY=0;entryDx=0;entryDy=0;fontSize=18;" edge="1" parent="1" target="HGyJM2t3qWmwH9yt4fWw-164">
          <mxGeometry width="50" height="50" relative="1" as="geometry">
            <mxPoint x="95" y="920" as="sourcePoint" />
            <mxPoint x="15" y="1000" as="targetPoint" />
          </mxGeometry>
        </mxCell>
        <mxCell id="HGyJM2t3qWmwH9yt4fWw-163" value="&lt;font style=&quot;font-size: 15px;&quot;&gt;&amp;lt;= -2&lt;/font&gt;" style="edgeLabel;html=1;align=center;verticalAlign=middle;resizable=0;points=[];fontSize=15;" vertex="1" connectable="0" parent="HGyJM2t3qWmwH9yt4fWw-162">
          <mxGeometry x="0.0296" relative="1" as="geometry">
            <mxPoint as="offset" />
          </mxGeometry>
        </mxCell>
        <mxCell id="HGyJM2t3qWmwH9yt4fWw-164" value="-5" style="ellipse;whiteSpace=wrap;html=1;aspect=fixed;fontSize=18;" vertex="1" parent="1">
          <mxGeometry x="-70" y="1000" width="80" height="80" as="geometry" />
        </mxCell>
        <mxCell id="HGyJM2t3qWmwH9yt4fWw-165" value="2" style="ellipse;whiteSpace=wrap;html=1;aspect=fixed;fontSize=18;" vertex="1" parent="1">
          <mxGeometry x="175" y="1000" width="80" height="80" as="geometry" />
        </mxCell>
      </root>
    </mxGraphModel>
  </diagram>
</mxfile>
